<?xml version="1.0" ?><svg viewBox="0 0 40 40" xmlns="http://www.w3.org/2000/svg"><defs><style>.cls-1{fill:#191414;}</style></defs><g id="Spotify"><path class="cls-1" d="M20,6A14,14,0,1,0,34,20,14,14,0,0,0,20,6Zm6.42,20.19a.87.87,0,0,1-1.2.29c-3.29-2-7.42-2.46-12.3-1.35a.86.86,0,0,1-1-.65.87.87,0,0,1,.65-1.05c5.34-1.22,9.91-.69,13.6,1.56A.88.88,0,0,1,26.42,26.19Zm1.71-3.81a1.09,1.09,0,0,1-1.5.36,18.39,18.39,0,0,0-13.95-1.63A1.09,1.09,0,0,1,12.05,19a20.4,20.4,0,0,1,15.72,1.86A1.08,1.08,0,0,1,28.13,22.38Zm.15-4c-4.51-2.68-12-2.93-16.26-1.62a1.31,1.31,0,1,1-.76-2.5c4.94-1.51,13.16-1.21,18.36,1.87a1.31,1.31,0,1,1-1.34,2.25Z"/></g></svg>